<svg xmlns="http://www.w3.org/2000/svg" width="38" height="34"><path data-name="形状 7 拷贝 2" d="M34.261 8H3.739A3.7 3.7 0 0 0 0 11.641V30.36A3.7 3.7 0 0 0 3.739 34h30.522A3.7 3.7 0 0 0 38 30.36V11.641A3.7 3.7 0 0 0 34.261 8zm1.685 22.36A1.665 1.665 0 0 1 34.261 32H3.739a1.665 1.665 0 0 1-1.685-1.64V11.641A1.665 1.665 0 0 1 3.739 10h30.522a1.665 1.665 0 0 1 1.685 1.641V30.36zM23.8 20.5h-3.259v-1.036l3.934-4.55a.982.982 0 0 0-.124-1.409 1.046 1.046 0 0 0-1.447.121L19.21 17.9l-3.694-4.272a1.046 1.046 0 0 0-1.447-.121.982.982 0 0 0-.124 1.409l4.48 5.18c.019.022.042.038.063.058v.346h-3.414a1 1 0 1 0 0 2h3.413V24H16.1a1 1 0 1 0 0 2h2.387v3a1.027 1.027 0 0 0 2.054 0v-3h2.235a1 1 0 1 0 0-2h-2.235v-1.5H23.8a1 1 0 1 0 0-2zM4.108 6h31.324a1 1 0 1 0 0-2H4.108a1 1 0 1 0 0 2zm3.595-4h23.621a1 1 0 1 0 0-2H7.7a1 1 0 1 0 0 2z" fill="#4d6a8f" fill-rule="evenodd"/></svg>