<svg xmlns="http://www.w3.org/2000/svg" width="38" height="30"><path data-name="形状 4" d="M36.632 16.65H12.92a1.506 1.506 0 0 1 0-3h23.712A1.487 1.487 0 0 1 38 15.15a1.615 1.615 0 0 1-1.368 1.5zm0-12H12.92a1.506 1.506 0 0 1 0-3h23.712A1.487 1.487 0 0 1 38 3.15a1.615 1.615 0 0 1-1.368 1.5zM2.888 30A2.9 2.9 0 0 1 0 27a3 3 0 0 1 2.888-3 3 3 0 0 1 0 6zm0-12A2.9 2.9 0 0 1 0 15a3 3 0 0 1 2.888-3 3 3 0 0 1 0 6zm0-12A2.9 2.9 0 0 1 0 3a3 3 0 0 1 2.888-3 3 3 0 0 1 0 6zM12.92 25.65h23.712a1.506 1.506 0 0 1 0 3H12.92a1.487 1.487 0 0 1-1.368-1.5 1.393 1.393 0 0 1 1.368-1.5z" fill="#4d6a8f" fill-rule="evenodd"/></svg>